# xmcd CD database file
#
# Track frame offsets:
#	150
#	10936
#	23556
#	35930
#	49362
#	62754
#	77939
#	90842
#	104762
#	117183
#	132833
#	147583
#	161062
#	175808
#	191082
#	206252
#	218858
#	232058
#	245209
#	259593
#
# Disc length: 3658 seconds
#
# Revision: 0
# Processed by: cddbd v1.5.1PL0 Copyright (c) Steve Scherf et al.
# Submitted via: CDex 1.51
#
DISCID=280e4814
DTITLE=Benny Moré - El voce del pueblo Cubana
DYEAR=1900
DGENRE=Salsa
TTITLE0=Guayabal Son
TTITLE1=El congde negro Guaracha
TTITLE2=El Agarrao Son
TTITLE3=A media Noche Son
TTITLE4=Como fue Bolero
TTITLE5=Santa Jsabel Son
TTITLE6=Marienao Son
TTITLE7=Vano capricho Bolero
TTITLE8=Buscandio Bolero Son
TTITLE9=OH Vida bolero
TTITLE10=que bueno baila son
TTITLE11=manigua son
TTITLE12=mi amor fugaz bolero
TTITLE13=el canonero cha cha
TTITLE14=y hoy como ayer bolero
TTITLE15=comba y jose son
TTITLE16=tumba tumbador son
TTITLE17=nena ma muero son
TTITLE18=te querada bolero
TTITLE19=donde estabas bolero son
EXTD=
EXTT0=
EXTT1=
EXTT2=
EXTT3=
EXTT4=
EXTT5=
EXTT6=
EXTT7=
EXTT8=
EXTT9=
EXTT10=
EXTT11=
EXTT12=
EXTT13=
EXTT14=
EXTT15=
EXTT16=
EXTT17=
EXTT18=
EXTT19=
PLAYORDER=
